<?xml version="1.0" encoding="UTF-8" standalone="no"?>
<svg
   width="3584"
   height="2560"
   viewBox="0 0 948.26663 677.33335"
   version="1.1"
   id="svg40"
   sodipodi:docname="grid.svg"
   inkscape:version="1.1 (c68e22c387, 2021-05-23)"
   inkscape:export-filename="C:\Users\HP\OneDrive\Documents\Programmation\Tests\SpareValues\grid.png"
   inkscape:export-xdpi="96"
   inkscape:export-ydpi="96"
   xmlns:inkscape="http://www.inkscape.org/namespaces/inkscape"
   xmlns:sodipodi="http://sodipodi.sourceforge.net/DTD/sodipodi-0.dtd"
   xmlns="http://www.w3.org/2000/svg"
   xmlns:svg="http://www.w3.org/2000/svg">
  <defs
     id="defs44" />
  <sodipodi:namedview
     id="namedview42"
     pagecolor="#505050"
     bordercolor="#eeeeee"
     borderopacity="1"
     inkscape:pageshadow="0"
     inkscape:pageopacity="0"
     inkscape:pagecheckerboard="0"
     showgrid="true"
     inkscape:zoom="0.17727627"
     inkscape:cx="2992.5043"
     inkscape:cy="1593.5579"
     inkscape:window-width="1366"
     inkscape:window-height="705"
     inkscape:window-x="-8"
     inkscape:window-y="-8"
     inkscape:window-maximized="1"
     inkscape:current-layer="svg40">
    <inkscape:grid
       type="xygrid"
       id="grid1000"
       empspacing="128" />
  </sodipodi:namedview>
  <path
     fill="#fff"
     fill-rule="evenodd"
     d="M0 0h948.26666v677.33331H0z"
     style="font-variation-settings:normal;stroke-width:0.00560035;stroke-miterlimit:4;stroke-dasharray:none"
     id="path2" />
  <path
     fill="#ffe040"
     stroke="#000"
     stroke-linecap="round"
     stroke-linejoin="round"
     stroke-width="4.23333"
     d="M338.66666 338.66666v270.93333a270.9333 270.9333 0 0 0 270.93333-270.93333Z"
     id="path4"
     style="stroke-width:0.02370812;stroke-miterlimit:4;stroke-dasharray:none" />
  <path
     fill="#8060c0"
     stroke="#000"
     stroke-linecap="round"
     stroke-linejoin="round"
     stroke-width="4.23333"
     d="M338.66666 338.66666h270.93333A270.9333 270.9333 0 0 0 338.66666 67.733333Z"
     id="path6"
     style="stroke-width:0.02370812;stroke-miterlimit:4;stroke-dasharray:none" />
  <path
     fill="#f08040"
     stroke="#000"
     stroke-linecap="round"
     stroke-linejoin="round"
     stroke-width="4.23333"
     d="M67.733333 338.66666A270.9333 270.9333 0 0 0 338.66666 609.59999V338.66666Z"
     id="path8"
     style="stroke-width:0.02370812;stroke-miterlimit:4;stroke-dasharray:none" />
  <path
     fill="#d04060"
     stroke="#000"
     stroke-linecap="round"
     stroke-linejoin="round"
     stroke-width="4.23333"
     d="M67.733333 338.66666H338.66666V67.733333A270.9333 270.9333 0 0 0 67.733333 338.66666Z"
     id="path10"
     style="stroke-width:0.02370812;stroke-miterlimit:4;stroke-dasharray:none" />
  <path
     fill="#fff080"
     stroke="#000"
     stroke-linecap="round"
     stroke-linejoin="round"
     stroke-width="4.23333"
     d="M338.66666 338.66666v180.62205a180.62222 180.62224 0 0 0 180.62205-180.62205Z"
     id="path12"
     style="stroke-width:2.11666665;stroke-miterlimit:4;stroke-dasharray:none" />
  <path
     fill="#b0a0d0"
     stroke="#000"
     stroke-linecap="round"
     stroke-linejoin="round"
     stroke-width="4.23333"
     d="M338.66666 338.66666h180.62205a180.62222 180.62224 0 0 0-180.62205-180.62205Z"
     id="path14"
     style="stroke-width:2.11666665;stroke-miterlimit:4;stroke-dasharray:none" />
  <path
     fill="#ffa080"
     stroke="#000"
     stroke-linecap="round"
     stroke-linejoin="round"
     stroke-width="4.23333"
     d="M158.04461 338.66666a180.62222 180.62224 0 0 0 180.62205 180.62205V338.66666Z"
     id="path16"
     style="stroke-width:2.11666665;stroke-miterlimit:4;stroke-dasharray:none" />
  <path
     fill="#e08080"
     stroke="#000"
     stroke-linecap="round"
     stroke-linejoin="round"
     stroke-width="4.23333"
     d="M158.04461 338.66666h180.62205V158.04461a180.62222 180.62224 0 0 0-180.62205 180.62205Z"
     id="path18"
     style="stroke-width:2.11666665;stroke-miterlimit:4;stroke-dasharray:none" />
  <ellipse
     cx="-357.16632"
     cy="270.93332"
     stroke="#000"
     stroke-linecap="round"
     stroke-linejoin="round"
     stroke-width="4.23333"
     rx="67.73333"
     ry="66.729881"
     id="ellipse20" />
  <path
     fill="#e0e0e0"
     stroke="#000"
     stroke-linecap="round"
     stroke-linejoin="round"
     stroke-width="4.23333"
     d="M338.66666 248.35538a90.311109 90.311117 0 0 0-90.31128 90.31128 90.311109 90.311117 0 0 0 90.31128 90.31129 90.311109 90.311117 0 0 0 90.31129-90.31129 90.311109 90.311117 0 0 0-90.31129-90.31128z"
     id="path22"
     style="stroke-width:2.11666665;stroke-miterlimit:4;stroke-dasharray:none" />
  <path
     fill="none"
     stroke="#000"
     stroke-linecap="round"
     stroke-linejoin="round"
     stroke-width="8.46667"
     d="M609.59998 338.66666a270.93332 270.93332 0 0 1-270.93332 270.93332A270.93332 270.93332 0 0 1 67.733337 338.66666 270.93332 270.93332 0 0 1 338.66666 67.733337 270.93332 270.93332 0 0 1 609.59998 338.66666ZM338.66666 67.733333V609.59999M67.733333 338.66666H609.59999"
     id="path24"
     style="stroke-width:4.2333333;stroke-miterlimit:4;stroke-dasharray:none" />
  <path
     stroke="#000"
     stroke-linecap="round"
     stroke-linejoin="round"
     stroke-miterlimit="0"
     stroke-width="8.46667"
     d="M67.733333 609.6 101.6 592.66666l-16.933327-16.93333ZM609.60001 67.73333l-33.86667 16.93334L592.66667 101.6Zm-.00002-.000002L67.733333 609.59999M609.6 609.60001l-16.93334-33.86667-16.93333 16.93333zM67.733332 67.733332 84.666666 101.6 101.6 84.666666Zm.000001-.000004L609.59999 609.59999"
     id="path26"
     style="stroke-width:4.2333333;stroke-miterlimit:0;stroke-dasharray:none" />
  <path
     fill="none"
     stroke="#000"
     stroke-linecap="round"
     stroke-linejoin="round"
     stroke-width="8.46667"
     d="M745.06665 67.73333h101.6v541.86664h-101.6z"
     style="font-variation-settings:normal;stroke-width:2.11666665;stroke-miterlimit:4;stroke-dasharray:none;stroke:#000000;stroke-opacity:1"
     id="path28" />
  <path
     fill="#e06060"
     fill-rule="evenodd"
     stroke="#000000"
     stroke-linecap="round"
     stroke-linejoin="round"
     stroke-width="8.46667"
     d="m 745.06671,67.73333 h 101.6 v 101.6 h -101.6 z"
     style="font-variation-settings:normal;stroke-width:2.11666665;stroke-miterlimit:4;stroke-dasharray:none;stroke:#000000;stroke-opacity:1"
     id="path30" />
  <path
     fill="#608060"
     fill-rule="evenodd"
     stroke="#000000"
     stroke-linecap="round"
     stroke-linejoin="round"
     stroke-width="8.46667"
     d="m 745.06666,507.99998 h 101.6 V 609.6 h -101.6 z"
     style="font-variation-settings:normal;stroke:#000000;stroke-width:2.11666665;stroke-miterlimit:4;stroke-dasharray:none;stroke-opacity:1"
     id="path32" />
  <path
     fill="#ffa0a0"
     fill-rule="evenodd"
     stroke="#000000"
     stroke-linecap="round"
     stroke-linejoin="round"
     stroke-width="8.46667"
     d="m 745.06666,161.48197 h 101.6 v 177.18469 h -101.6 z"
     style="font-variation-settings:normal;stroke:#000000;stroke-width:2.11666665;stroke-miterlimit:4;stroke-dasharray:none;stroke-opacity:1"
     id="path34" />
  <path
     fill="#a0b0a0"
     fill-rule="evenodd"
     stroke="#000000"
     stroke-linecap="round"
     stroke-linejoin="round"
     stroke-width="8.46667"
     d="m 745.06666,338.66666 h 101.6 v 177.18469 h -101.6 z"
     style="font-variation-settings:normal;stroke:#000000;stroke-width:2.11666665;stroke-miterlimit:4;stroke-dasharray:none;stroke-opacity:1"
     id="path36" />
  <path
     fill="#e0e0e0"
     fill-rule="evenodd"
     stroke="#000000"
     stroke-linecap="round"
     stroke-linejoin="round"
     stroke-width="8.46667"
     d="m 745.06666,249.46845 h 101.6 v 178.39643 h -101.6 z"
     style="font-variation-settings:normal;stroke:#000000;stroke-width:2.11666665;stroke-miterlimit:4;stroke-dasharray:none;stroke-opacity:1"
     id="path38" />
</svg>
